<?xml version="1.0" standalone="no"?><svg xmlns="http://www.w3.org/2000/svg" viewBox="0 0 1440 320"><path fill="#0099ff" fill-opacity="1" d="M0,0L40,48C80,96,160,192,240,218.7C320,245,400,203,480,197.3C560,192,640,224,720,240C800,256,880,256,960,250.7C1040,245,1120,235,1200,202.7C1280,171,1360,117,1400,90.7L1440,64L1440,320L1400,320C1360,320,1280,320,1200,320C1120,320,1040,320,960,320C880,320,800,320,720,320C640,320,560,320,480,320C400,320,320,320,240,320C160,320,80,320,40,320L0,320Z"></path></svg>